# xmcd
#
# Track frame offsets:
# 750
# 18839
# 34421
# 46920
# 63310
# 81769
# 102696
# 110761
# 128043
# 145561
# 161914
# 179694
# 235726
#
# Disc length: 3151 seconds
#
#
# Revision: 0
# Processed by: cddbd v1.5.2PL0 Copyright (c) Steve Scherf et al.
# Submitted via: FreeRIP 2.96 
#
DISCID=b10c450d
DTITLE=Maria Mena - Another phase
DYEAR=2002
DGENRE=Pop
TTITLE0=Free
TTITLE1=Blame It On Me
TTITLE2=My Lullaby
TTITLE3=Sleep To Dream
TTITLE4=Monday Morning
TTITLE5=Pale People
TTITLE6=They Smoke A Lot
TTITLE7=Crowded Train
TTITLE8=Bye Bye
TTITLE9=Ugly
TTITLE10=Those Who Caved In
TTITLE11=Better Than Nothing
TTITLE12=data
EXTD=
EXTT0=
EXTT1=
EXTT2=
EXTT3=
EXTT4=
EXTT5=
EXTT6=
EXTT7=
EXTT8=
EXTT9=
EXTT10=
EXTT11=
EXTT12=
PLAYORDER=
